<?xml version="1.0" encoding="UTF-8" standalone="no"?>
<svg xmlns:dc="http://purl.org/dc/elements/1.1/" xmlns:cc="http://creativecommons.org/ns#" xmlns:rdf="http://www.w3.org/1999/02/22-rdf-syntax-ns#" xmlns:svg="http://www.w3.org/2000/svg" xmlns="http://www.w3.org/2000/svg" width="499.99954" height="118.497" viewBox="0 0 399.99964 94.797601" version="1.1" id="svg3355">
  <metadata id="metadata3442">
    <rdf:RDF>
      <cc:Work rdf:about="">
        <dc:format>image/svg+xml</dc:format>
        <dc:type rdf:resource="http://purl.org/dc/dcmitype/StillImage"/>
        <dc:title/>
      </cc:Work>
    </rdf:RDF>
  </metadata>
  <defs id="defs3440"/>
  <g transform="matrix(0.48169511,0,0,0.48169511,-5.3125e-6,3.7036133e-7)" id="g3861">
    <g id="g3833">
      <path id="path3360" d="m 108.03125,174.46484 c -2.94531,-0.51562 -4.92187,-1.89843 -6.07812,-4.25 -0.76172,-1.54297 -0.78907,-1.71093 -0.78907,-4.48828 0,-2.66797 0.0508,-2.98437 0.66797,-4.24219 1.53125,-3.12109 5.20703,-5.0039 9.14453,-4.6875 4.20313,0.33594 6.47657,2.375 5.01563,4.49219 -0.92188,1.33985 -1.60156,1.46485 -3.78906,0.71485 -2.44141,-0.83985 -3.96485,-0.5625 -5.2461,0.96093 -1.65625,1.96875 -1.22656,5.20703 0.86328,6.48047 0.51953,0.31641 1.20703,0.47656 2.05469,0.47656 1.39453,0 2.26953,-0.35546 3.125,-1.27343 l 0.55859,-0.59766 -2.15234,-0.082 c -2.44531,-0.0977 -3.04687,-0.42578 -3.30469,-1.80469 -0.21484,-1.13281 0.26563,-2.15625 1.16016,-2.46484 1.04687,-0.36719 7.58984,-0.32813 8.33203,0.0508 0.86328,0.4375 1.10547,1.56641 0.79688,3.70703 -0.625,4.34766 -3.21485,6.74219 -7.69532,7.11719 -0.7539,0.0664 -1.95312,0.0156 -2.66406,-0.10938 z m 0,0" style="fill:#d4a67d;fill-opacity:1;fill-rule:nonzero;stroke:none"/>
      <path id="path3362" d="m 168.22266,174.16797 c -2.57813,-0.73047 -4.65625,-2.5 -5.83594,-4.96875 -0.67578,-1.41016 -0.7461,-1.77735 -0.74219,-3.83985 0.004,-1.95312 0.0937,-2.47265 0.64063,-3.64062 0.84765,-1.82422 2.27343,-3.32031 4.09375,-4.29297 1.3125,-0.70312 1.77343,-0.81641 3.66015,-0.89844 2.45313,-0.10937 3.65625,0.14063 5.07031,1.0586 1.05079,0.67968 2.25,2.30078 2.25,3.03125 0,0.66797 -0.88281,2.26172 -1.48828,2.6875 -0.89062,0.625 -1.84765,0.47265 -2.72265,-0.42969 -0.92188,-0.94922 -1.95703,-1.21484 -3.32032,-0.85156 -3.8164,1.01172 -3.58203,6.34765 0.30079,6.86718 0.89062,0.1211 1.52734,-0.125 3.41015,-1.29687 0.82031,-0.51563 1.67188,-0.27734 2.86719,0.80078 1.08594,0.98047 1.1875,1.57031 0.5,2.91406 -0.60547,1.17969 -1.34375,1.83985 -2.75781,2.46485 -1.44922,0.64062 -4.3711,0.83593 -5.92578,0.39453 z m 0,0" style="fill:#d4a67d;fill-opacity:1;fill-rule:nonzero;stroke:none"/>
      <path id="path3364" d="m 139.02344,174.07812 c -0.29297,-0.0586 -0.75391,-0.38671 -1.01953,-0.72656 -0.46094,-0.58594 -0.48438,-0.95703 -0.48438,-7.5625 l 0,-6.94531 0.70313,-0.69922 c 1.20703,-1.21094 3.28515,-0.87109 4.07031,0.66016 0.35937,0.70703 0.36719,13.26953 0.008,14.05859 -0.14062,0.30859 -0.44922,0.6875 -0.6875,0.83594 -0.53516,0.33203 -1.87109,0.53125 -2.58984,0.38281 z m 0,0" style="fill:#d4a67d;fill-opacity:1;fill-rule:nonzero;stroke:none"/>
      <path id="path3366" d="m 37.421875,173.05469 -0.703125,-0.69532 0,-13.43359 0.738281,-0.62109 c 1.417969,-1.19141 1.902344,-0.97657 5.199219,2.3164 l 2.945312,2.9336 2.941407,-2.9375 c 2.828125,-2.82032 3.265625,-3.11719 4.125,-2.78516 0.980469,0.375 1.089843,1.19922 1.089843,8.23047 0,6.60547 -0.0078,6.73047 -0.523437,7.21094 -0.691406,0.64453 -2.554687,0.67578 -3.320313,0.0547 -0.519531,-0.42187 -0.535156,-0.5625 -0.496093,-4.26171 l 0.04297,-3.82422 -1.875,1.85937 c -1.03125,1.02344 -1.980469,1.85938 -2.105469,1.85938 -0.128907,0 -1.070313,-0.83203 -2.09375,-1.85157 l -1.867188,-1.85546 0,7.51562 -0.632812,0.49609 c -0.988281,0.77735 -2.578125,0.6836 -3.464844,-0.20312 z m 0,0" style="fill:#d4a67d;fill-opacity:1;fill-rule:nonzero;stroke:none"/>
      <path id="path3368" d="m 69.492188,172.50391 c -0.441407,-0.63282 -0.476563,-1.71875 -0.09766,-2.85157 0.585938,-1.73437 6.105469,-11.62109 6.984375,-12.50781 1.191406,-1.19922 2.1875,-1.23437 3.457032,-0.12891 1.164062,1.01563 6.054687,8.53125 7.761718,11.92188 1.003906,2 0.140625,4.10156 -1.6875,4.10156 -0.507812,0 -1.128906,-0.19531 -1.457031,-0.45703 -0.316406,-0.25 -1.761719,-2.41016 -3.214844,-4.79297 -1.449219,-2.38672 -2.695312,-4.33984 -2.761719,-4.34375 -0.121093,-0.008 -2.636718,4.91406 -2.636718,5.15625 0,0.0625 0.367187,0.11719 0.8125,0.11719 1.199218,0 1.851562,0.64453 2.003906,1.98437 0.08984,0.8125 0.01563,1.29297 -0.269531,1.73047 l -0.398438,0.60547 -4.058593,0 c -3.925782,0 -4.074219,-0.0195 -4.4375,-0.53515 z m 0,0" style="fill:#d4a67d;fill-opacity:1;fill-rule:nonzero;stroke:none"/>
      <path id="path3370" d="m 192.09766,172.43359 c -0.81641,-1.24218 -0.37891,-2.52734 2.95703,-8.69922 3.3789,-6.25781 4.32031,-7.49609 5.69922,-7.49609 0.59765,0 1.08593,0.22266 1.72656,0.78125 1.16015,1.01563 6.05469,8.53125 7.76172,11.92188 1.0039,1.99609 0.14062,4.09765 -1.6875,4.09765 -0.51172,0 -1.12891,-0.1914 -1.46094,-0.45703 -0.3125,-0.25 -1.75781,-2.40625 -3.21094,-4.79297 -1.45312,-2.38281 -2.69531,-4.33984 -2.76562,-4.34375 -0.1211,-0.004 -2.63282,4.91406 -2.63282,5.15625 0,0.0664 0.36329,0.11719 0.8125,0.11719 1.19922,0 1.85157,0.64453 2,1.98437 0.0937,0.8125 0.0156,1.29688 -0.26953,1.73047 l -0.39453,0.60547 -8.14062,0 z m 0,0" style="fill:#d4a67d;fill-opacity:1;fill-rule:nonzero;stroke:none"/>
      <path id="path3372" d="m 163.03906,143.16797 c -0.41797,-0.1836 -0.88281,-0.5586 -1.03125,-0.83594 -0.18359,-0.34766 -0.24609,-2.65625 -0.19531,-7.48047 l 0.0703,-6.97656 0.67188,-0.57812 c 0.46875,-0.40235 0.96484,-0.57813 1.63672,-0.57813 1.87109,0 2.42578,0.70313 2.60937,3.31641 l 0.12109,1.75781 3.35547,-2.53516 c 2.98828,-2.26562 3.46094,-2.53906 4.33203,-2.53906 1.79297,0 2.99219,1.97266 2.16797,3.56641 -0.21875,0.42578 -1.49609,1.58593 -2.96093,2.6875 -1.41797,1.0625 -2.60547,2.01562 -2.64063,2.11718 -0.0391,0.10157 1.12109,0.91016 2.57031,1.79688 1.44922,0.88672 2.85547,1.89062 3.125,2.23437 0.76953,0.97266 0.64453,2.12891 -0.32422,3.10157 -1.30859,1.30468 -1.89062,1.17578 -6.05468,-1.33985 l -3.57032,-2.15625 -0.0703,1.58203 c -0.0859,1.89453 -0.50781,2.63282 -1.69531,2.96485 -1.09766,0.30468 -1.1875,0.29687 -2.11719,-0.10547 z m 0,0" style="fill:#d4a67d;fill-opacity:1;fill-rule:nonzero;stroke:none"/>
      <path id="path3374" d="m 37.351562,142.40625 -0.632812,-0.62891 0,-6.58593 c 0,-4.05469 0.09766,-6.75782 0.25,-7.04297 0.28125,-0.52735 1.4375,-1.1875 2.082031,-1.1875 0.242188,0 1.78125,1.34765 3.425781,2.99609 l 2.988282,2.99609 3.027344,-2.99609 c 1.667968,-1.64844 3.21875,-2.99609 3.445312,-2.99609 0.230469,0 0.734375,0.3164 1.121094,0.70312 l 0.703125,0.69922 0,6.85938 c 0,6.53906 -0.02344,6.88281 -0.480469,7.33984 -0.363281,0.35937 -0.800781,0.48047 -1.765625,0.48047 -2.035156,0 -2.125,-0.19922 -2.089844,-4.54297 0.01953,-1.99219 -0.05078,-3.61719 -0.152343,-3.61719 -0.101563,0 -0.996094,0.8086 -1.992188,1.80078 l -1.8125,1.79688 -1.789062,-1.79688 c -0.984376,-0.99218 -1.871094,-1.80078 -1.972657,-1.80078 -0.101562,0 -0.1875,1.61328 -0.1875,3.59766 0,4.32031 -0.117187,4.5625 -2.246093,4.5625 -1.070313,0 -1.394532,-0.10938 -1.921876,-0.63281 z m 0,0" style="fill:#d4a67d;fill-opacity:1;fill-rule:nonzero;stroke:none"/>
      <path id="path3376" d="m 100.92188,126.12109 -0.0664,8.33985 -0.0625,8.33984 5.15625,0 c 4.60937,0 5.28906,-0.0508 6.46875,-0.49219 1.69531,-0.63281 3.55078,-2.30859 4.33594,-3.91015 2.19531,-4.49219 0.41015,-9.50391 -4.15235,-11.64063 -1.34375,-0.6289 -1.4375,-0.63672 -6.52343,-0.63672 z m 4.91796,4.91797 4.81641,0 0.99219,0.92188 c 0.8789,0.82031 0.99609,1.0625 1.08203,2.21875 0.11328,1.52734 -0.41016,2.57422 -1.66797,3.34375 -0.63281,0.38281 -1.21094,0.47265 -3.00391,0.47656 l -2.21875,0 z m 0,0" style="fill:#d4a67d;fill-opacity:1;fill-rule:nonzero;stroke:none"/>
      <path id="path3378" d="m 140.0625,126.14453 c -1.67969,0 -2.17188,0.10156 -3.50781,0.73438 -0.85547,0.40625 -1.97266,1.15625 -2.48828,1.66796 -0.51172,0.51172 -1.26563,1.63282 -1.66797,2.48829 -0.62891,1.33203 -0.73438,1.82812 -0.73438,3.48046 0.004,1.5586 0.1211,2.17969 0.6211,3.27344 1.02343,2.22656 2.80468,3.90625 4.96484,4.67969 0.48047,0.17187 1.70312,0.31641 2.71875,0.32031 2.60156,0.0156 4.23047,-0.63281 5.96875,-2.37109 1.71484,-1.71094 2.38281,-3.36719 2.38281,-5.89844 0,-3.41406 -1.66797,-6.09375 -4.72656,-7.60156 -1.38281,-0.67969 -1.8125,-0.77344 -3.53125,-0.77344 z m 0.0859,4.89453 c 1.09765,0 1.33593,0.10156 2.21875,0.92188 0.8789,0.82031 0.99609,1.0625 1.08203,2.21875 0.11328,1.52734 -0.41016,2.57422 -1.66797,3.34375 -0.80859,0.49218 -2.30469,0.60937 -3.19531,0.24609 -0.78516,-0.31641 -2.02344,-1.88281 -2.05469,-2.59766 -0.10547,-2.66796 1.17187,-4.13281 3.61719,-4.13281 z m 0,0" style="fill:#d4a67d;fill-opacity:1;fill-rule:nonzero;stroke:none"/>
      <path id="path3380" d="m 69.707031,141.96875 c -1.179687,-1.18359 -0.839843,-2.30078 2.671875,-8.80078 3.285156,-6.07813 3.714844,-6.73438 4.753906,-7.29297 0.910157,-0.49219 1.667969,-0.37891 2.640626,0.38672 1.292968,1.01562 7.925781,11.58984 8.207031,13.08203 0.46875,2.50781 -1.917969,4.07812 -3.6875,2.42578 -0.304688,-0.28125 -1.695313,-2.37891 -3.09375,-4.66016 -1.398438,-2.28515 -2.609375,-4.15234 -2.691407,-4.15234 -0.191406,0.004 -2.667968,4.65234 -2.667968,5.00781 0,0.16016 0.429687,0.27344 1.050781,0.27344 1.292969,0 1.625,0.35547 1.773437,1.91016 0.09766,1.02343 0.03516,1.2539 -0.503906,1.78906 -0.609375,0.61719 -0.667968,0.625 -4.242187,0.625 -3.523438,0 -3.636719,-0.0156 -4.207031,-0.58984 z m 0,0" style="fill:#d4a67d;fill-opacity:1;fill-rule:nonzero;stroke:none"/>
      <path id="path3382" d="m 192.35156,141.96875 c -1.1914,-1.19141 -0.84765,-2.30078 2.78516,-9.00781 3.27344,-6.04297 3.58203,-6.51563 4.66015,-7.09766 1.63672,-0.8789 2.64063,-0.0937 5.53516,4.32422 3.09375,4.73047 5.14844,8.33203 5.30859,9.3125 0.27735,1.70312 -1.1914,3.35937 -2.60156,2.92969 -0.97656,-0.29688 -1.59765,-1.08203 -4.19531,-5.32032 -1.40234,-2.28515 -2.61328,-4.15234 -2.69922,-4.15234 -0.19531,0 -2.66016,4.63672 -2.66016,5.00781 0,0.16016 0.42188,0.27344 1.05079,0.27344 1.28906,0 1.625,0.35547 1.77343,1.91016 0.0977,1.02343 0.0312,1.2539 -0.50781,1.78906 -0.60547,0.60937 -0.66797,0.62109 -4.23828,0.62109 -3.52344,0 -3.63672,-0.0156 -4.21094,-0.58984 z m 0,0" style="fill:#d4a67d;fill-opacity:1;fill-rule:nonzero;stroke:none"/>
    </g>
    <g id="g3821">
      <path id="path3384" d="m 37.007812,112.75391 c -0.207031,-0.20703 -0.289062,-1.71094 -0.289062,-5.2461 0,-4.49218 0.04297,-4.99218 0.441406,-5.35156 0.363282,-0.32812 1.007813,-0.39453 3.804688,-0.39453 3.097656,0 3.429687,0.043 4.179687,0.54297 1.054688,0.70312 1.65625,1.92578 1.65625,3.36328 0,1.33984 -0.433593,2.49609 -1.191406,3.17187 -0.417969,0.3711 -0.960937,0.4961 -2.4375,0.56641 -2.050781,0.0937 -2.613281,-0.125 -2.609375,-1.01562 0.0078,-0.9336 0.398438,-1.21875 1.847656,-1.34766 l 1.390625,-0.12109 0.07422,-1.13672 0.07031,-1.14063 -4.585937,0 0,3.82031 c 0,3.15625 -0.06641,3.89063 -0.375,4.20313 -0.449219,0.44531 -1.570313,0.49609 -1.976563,0.0859 z m 0,0" style="fill:#d4a67d;fill-opacity:1;fill-rule:nonzero;stroke:none"/>
      <path id="path3386" d="m 73.253906,112.66406 c -0.523437,-0.35937 -0.535156,-0.48047 -0.535156,-5.27343 0,-4.59375 0.03125,-4.91016 0.464844,-5.14454 0.269531,-0.14453 2.183594,-0.25 4.523437,-0.25 3.628907,0 4.101563,0.0469 4.457031,0.44141 0.5,0.55078 0.507813,1.33203 0.01953,1.82422 -0.308594,0.30469 -1,0.375 -3.722656,0.375 l -3.339844,0 0,1.66406 2.789062,0.0703 c 2.53125,0.0586 2.824219,0.11329 3.128906,0.57032 0.292969,0.44531 0.277344,0.57422 -0.132812,1.08203 -0.429688,0.53125 -0.65625,0.57812 -3.125,0.65625 l -2.660156,0.0703 0,1.39844 3.183594,0 c 3.699218,0 4.335937,0.22656 4.207031,1.51562 -0.113281,1.1836 -0.746094,1.35547 -5,1.35938 -2.988281,0.004 -3.832031,-0.0703 -4.257813,-0.36719 z m 0,0" style="fill:#d4a67d;fill-opacity:1;fill-rule:nonzero;stroke:none"/>
      <path id="path3388" d="m 90.222656,112.60156 c -0.582031,-0.47656 -0.585937,-0.48828 -0.585937,-5.03125 0,-4.14453 0.04297,-4.60156 0.457031,-5.0625 0.582031,-0.64062 1.675781,-0.65234 2.304688,-0.0234 0.433593,0.43359 0.480468,0.79687 0.480468,3.83984 l 0,3.35937 2.59375,0 c 2.277344,0 2.65625,0.0586 3.121094,0.48829 0.644531,0.60156 0.671875,1.43359 0.06641,2.18359 -0.441406,0.54297 -0.605468,0.57031 -4.15625,0.64453 -3.386718,0.0703 -3.742187,0.0352 -4.28125,-0.39844 z m 0,0" style="fill:#d4a67d;fill-opacity:1;fill-rule:nonzero;stroke:none"/>
      <path id="path3390" d="m 106.54297,112.60156 c -0.58203,-0.47656 -0.58594,-0.48828 -0.58594,-5.03125 0,-4.14453 0.043,-4.60156 0.45703,-5.0625 0.58203,-0.64062 1.67578,-0.65234 2.30469,-0.0234 0.43359,0.43359 0.48047,0.79687 0.48047,3.83984 l 0,3.35937 2.59375,0 c 2.27734,0 2.65625,0.0586 3.11719,0.48829 0.64843,0.60156 0.67578,1.43359 0.0703,2.18359 -0.44141,0.54297 -0.60547,0.57031 -4.15625,0.64453 -3.38672,0.0703 -3.74219,0.0352 -4.28125,-0.39844 z m 0,0" style="fill:#d4a67d;fill-opacity:1;fill-rule:nonzero;stroke:none"/>
      <path id="path3392" d="m 190.25781,112.79297 c -2.16015,-0.53516 -3.32812,-1.69922 -3.8125,-3.80469 -0.60937,-2.64062 0.5,-5.11328 2.76953,-6.16797 3.44532,-1.60547 8.05078,0.41797 5.78907,2.54297 l -0.60157,0.56641 -1.32812,-0.41797 c -1.4375,-0.45313 -2.09375,-0.36328 -2.92578,0.39844 -1.23438,1.1289 -0.80078,3.49218 0.73047,3.99609 0.67968,0.22656 1.01171,0.21094 1.70312,-0.0781 1.19922,-0.50391 1.07813,-0.86719 -0.28906,-0.86719 -1.34375,0 -1.73047,-0.29297 -1.73047,-1.31641 0,-0.41015 0.13281,-0.875 0.28906,-1.03515 0.39453,-0.39454 5.26953,-0.39454 5.66406,0 0.63672,0.64062 0.23047,3.20312 -0.73046,4.57812 -0.92969,1.33594 -3.54688,2.09766 -5.52735,1.60547 z m 0,0" style="fill:#d4a67d;fill-opacity:1;fill-rule:nonzero;stroke:none"/>
      <path id="path3394" d="m 167.87109,112.39844 c -0.67187,-0.67188 -0.28906,-1.94531 1.69532,-5.62891 2.08203,-3.86328 2.78515,-4.76562 3.71093,-4.76562 0.91407,0 1.84375,1.08203 4.1875,4.89843 2.21875,3.60938 2.48438,4.51172 1.57422,5.42188 -1.0664,1.06641 -1.73828,0.59375 -3.69922,-2.625 -0.88672,-1.45703 -1.6914,-2.69922 -1.79297,-2.75781 -0.0977,-0.0625 -0.51953,0.58593 -0.9375,1.43359 l -0.76562,1.54688 0.71094,0 c 1.12109,0 1.67187,1.66406 0.82812,2.5039 -0.5625,0.5625 -4.9414,0.54297 -5.51172,-0.0273 z m 0,0" style="fill:#d4a67d;fill-opacity:1;fill-rule:nonzero;stroke:none"/>
      <path id="path3396" d="m 205.33594,112.42578 c -0.31641,-0.3164 -0.37891,-1.09765 -0.37891,-4.76172 0,-4.26562 0.0156,-4.39062 0.55859,-4.90234 0.72657,-0.68359 1.48438,-0.66016 2.21485,0.0703 0.58203,0.57813 0.58984,0.64063 0.58984,4.88281 0,3.85157 -0.0469,4.33204 -0.4414,4.6875 -0.55469,0.50391 -2.04688,0.51563 -2.54297,0.0234 z m 0,0" style="fill:#d4a67d;fill-opacity:1;fill-rule:nonzero;stroke:none"/>
      <path id="path3398" d="M 56.9375,112.12891 C 54.347656,111.19922 54,110.48828 54,106.08984 c 0,-3.05468 0.04687,-3.41796 0.480469,-3.85546 0.515625,-0.51172 1.664062,-0.63282 2.390625,-0.24219 0.707031,0.3789 0.96875,1.57812 0.96875,4.44922 l 0,2.69531 0.726562,0.30078 c 0.921875,0.38281 2.640625,0.16406 3.046875,-0.39062 0.210938,-0.28907 0.308594,-1.34766 0.308594,-3.375 0,-2.63672 0.05078,-3.00782 0.476563,-3.4375 0.617187,-0.61329 1.929687,-0.625 2.675781,-0.0195 0.527343,0.42579 0.570312,0.65235 0.648437,3.26954 0.09766,3.39062 -0.03516,4.19531 -0.84375,5.15625 -1.019531,1.21093 -2.324218,1.73046 -4.632812,1.83593 -1.578125,0.0742 -2.335938,-0.008 -3.304688,-0.35547 z m 0,0" style="fill:#d4a67d;fill-opacity:1;fill-rule:nonzero;stroke:none"/>
      <path id="path3400" d="m 123.17578,112.28125 c -0.68359,-0.6875 -0.3164,-1.92187 1.6836,-5.67187 2.09765,-3.92188 2.79687,-4.84766 3.66015,-4.84766 0.91406,0 1.69922,0.85547 3.67578,4.02344 2.94922,4.71875 3.16406,5.33593 2.20703,6.29687 -1.09765,1.09375 -1.92968,0.46485 -4.08593,-3.08203 l -1.50391,-2.48047 -0.80469,1.51172 c -0.44922,0.82422 -0.80859,1.52734 -0.80859,1.55859 0,0.0312 0.29687,0.0898 0.65625,0.12891 0.9414,0.10938 1.47265,1.24219 0.98828,2.10547 -0.32813,0.58984 -0.44141,0.61328 -2.85937,0.67969 -1.75,0.0469 -2.60547,-0.0234 -2.8086,-0.22657 z m 0,0" style="fill:#d4a67d;fill-opacity:1;fill-rule:nonzero;stroke:none"/>
      <path id="path3402" d="m 148.83984,112.00781 c -0.49218,-0.52734 -0.52343,-0.77343 -0.52343,-4.67968 0,-3.80469 0.0391,-4.16016 0.48046,-4.60547 0.83985,-0.83985 1.42579,-0.60157 3.41407,1.375 l 1.86718,1.85547 1.89063,-1.87891 c 1.55859,-1.55078 1.98437,-1.85156 2.41406,-1.71484 0.82422,0.26171 0.97656,1.08593 0.97656,5.38281 0,4.47656 -0.11718,4.82031 -1.60156,4.82031 -1.22265,0 -1.51953,-0.58984 -1.51953,-3.00781 l 0,-2.13281 -1.02734,1.01171 c -0.56641,0.55469 -1.12891,1.01172 -1.25391,1.01172 -0.12109,0 -0.68359,-0.45703 -1.25,-1.01172 l -1.02734,-1.01171 0,2.17578 c 0,1.80078 -0.0781,2.23828 -0.44141,2.57031 -0.63672,0.57422 -1.77734,0.5 -2.39844,-0.16016 z m 0,0" style="fill:#d4a67d;fill-opacity:1;fill-rule:nonzero;stroke:none"/>
    </g>
    <g id="g3847">
      <path id="path3358" d="m 495.35937,176.92187 c 0,-3.67578 -0.0703,-8.15234 -0.15625,-9.9414 l -0.15625,-3.26172 -5.60156,-6.89453 c -4.76562,-5.85938 -5.99609,-7.54297 -5.52734,-7.54297 0.5664,0 19.02734,-5.83594 19.16015,-6.05469 0.88672,-1.5 10.46485,-15.16797 10.67579,-15.23828 0.15234,-0.0469 2.625,3.34375 5.49218,7.54297 2.8711,4.19531 5.30078,7.71875 5.39844,7.82812 0.0977,0.10938 3.98828,1.53907 8.65234,3.17969 4.66016,1.63672 8.57422,3.07813 8.69922,3.20313 0.14453,0.14453 -0.0742,0.61328 -0.58203,1.26562 -0.44922,0.56641 -2.96094,3.73438 -5.58594,7.03516 l -4.76953,6 0.0899,9.71484 c 0.0859,9.01172 0.0625,9.72266 -0.31641,9.79688 -0.22656,0.043 -4.15234,-1.22266 -8.72266,-2.81641 l -8.3125,-2.89453 -8.73828,2.87891 c -4.80859,1.57812 -8.95312,2.87109 -9.21875,2.87109 -0.46093,0 -0.48047,-0.16797 -0.48047,-6.67969 z m 0,0" style="fill:#d4a67d;fill-opacity:1;fill-rule:nonzero;stroke:none"/>
      <path id="path3408" d="m 764.16016,179.99219 c -2.40235,-0.61719 -5.82422,-2.34375 -7.39063,-3.72266 -5.02344,-4.43359 -6.21875,-12.37109 -2.6875,-17.87109 1.10156,-1.71875 4.17188,-4.49219 6.47656,-5.85157 1.64453,-0.97265 5.16407,-2.53515 7.02344,-3.11718 0.39844,-0.125 0.41797,-1.82032 0.35938,-32.35938 l -0.0625,-32.22656 -7.30469,-0.06641 c -4.01563,-0.03516 -7.39844,0.03125 -7.51172,0.144531 -0.11328,0.113281 -1.97656,8.785156 -4.13672,19.265629 -10.50781,50.97266 -12.90625,62.16406 -13.82812,64.55469 -2.10938,5.47265 -6.53907,9.37109 -11.87891,10.46093 -2.20703,0.44922 -4.37891,0.22266 -7.65234,-0.80859 -5.73047,-1.80859 -9.21094,-5.02734 -10.71875,-9.91406 -0.44532,-1.44531 -0.55079,-2.32031 -0.53516,-4.4375 0.0156,-2.4961 0.44531,-4.71485 7.85156,-40.53125 C 716.47266,102.67188 720,85.417969 720,85.171875 c 0,-0.410156 -0.21875,-0.449219 -2.52344,-0.449219 -2.14062,0 -2.7539,-0.09375 -4,-0.597656 -5.46094,-2.222656 -9.73828,-6.847656 -10.89453,-11.792969 -0.52734,-2.242187 -0.37109,-6.855469 0.29297,-8.761719 1.49609,-4.296874 5.15625,-7.773437 10.04687,-9.542968 l 2.0625,-0.746094 6.10938,0 c 3.35937,0 6.10547,-0.04297 6.10547,-0.09766 0,-0.304688 5.35937,-24.492188 5.67187,-25.582032 0.99219,-3.511718 3.84766,-7.390624 6.69532,-9.109374 4.85156,-2.921876 12.14062,-2.71875 17.04296,0.476562 3.71094,2.414062 7.07032,7.605469 7.07032,10.914062 0,1.199219 -0.7461,4.917969 -3.13672,15.59375 -0.91406,4.089844 -1.66406,7.515626 -1.66406,7.617188 0,0.105469 6.1875,0.1875 13.75,0.1875 11.57421,0 13.97265,0.05859 15.16015,0.367188 5.03125,1.308593 8.52735,5.441406 10.56641,12.484374 l 0.60547,2.082032 -0.004,48.99219 c -0.004,30.28125 -0.0937,49.60547 -0.23828,50.59766 -0.36328,2.51953 -1.19531,4.72265 -2.51953,6.67187 -1.46485,2.16016 -3.41016,3.8086 -5.98438,5.07031 l -1.91015,0.9336 -11.17188,-0.0117 c -10.23437,-0.0117 -11.32422,-0.0547 -12.97265,-0.47656 z m 0,0" style="fill:#f07f8a;fill-opacity:1;fill-rule:nonzero;stroke:none"/>
      <path id="path3410" d="m 317.16016,13.105469 c -3.51954,0 -5.28125,0.355469 -7.80079,1.582031 -1.93359,0.9375 -4.16796,3.136719 -5.20312,5.113281 -0.77734,1.484375 -1.51563,3.921875 -1.51563,5.003907 l 0,0.617187 -14.33984,0.07031 c -14.20312,0.07031 -14.35547,0.07812 -15.95703,0.617187 -3.57422,1.210937 -6.10547,3.777344 -7.16797,7.273437 -0.69531,2.292969 -0.57422,6.839844 0.23828,8.917969 1.05469,2.6875 3.64063,4.789063 6.69922,5.433594 C 272.96875,47.914062 278.13672,48 287.89844,48 l 14.5039,0 0,3.601562 -28.20312,0.0078 -1.58594,0.5625 c -3.15234,1.113281 -5.31641,3.007813 -6.625,5.804687 -0.62891,1.34375 -0.66797,1.613282 -0.66797,4.785157 0,3.277343 0.0195,3.398437 0.76563,4.972656 0.90234,1.90625 2.45312,3.503906 4.2539,4.386719 2.67578,1.308594 2.73438,1.3125 17.96094,1.316406 l 14.10156,0.0039 0,5.28125 -13.38281,0 c -13.32031,0.0039 -13.39062,0.0039 -15.96484,0.589844 -13.26953,3.007812 -25.42188,11.21875 -32.6875,22.085939 -4.58203,6.85547 -7.78125,15.72265 -8.77735,24.34765 -0.375,3.2461 -0.17578,10.64844 0.375,13.69532 1.83985,10.2539 7.4336,20.46484 14.55469,26.55859 8.90234,7.61719 18.39453,12.13672 28.61719,13.62891 3.03515,0.44531 8.94531,0.44921 12.10156,0.008 11.55859,-1.61328 23.03516,-6.9375 29.93359,-13.89063 8.3125,-8.3789 12.70704,-15.65625 14.59375,-24.16406 0.98829,-4.44922 1.11329,-6.6875 1.11329,-19.53125 l 0,-12.1289 1.86328,-0.004 c 6.32031,0 11.77734,-1.76563 15.11718,-4.88672 3.1836,-2.98047 4.6836,-8.023437 3.89454,-13.109374 -1.23438,-7.996094 -7.50782,-12.554687 -18.0586,-13.121094 l -2.82812,-0.15625 0.0664,-2.539062 0.0664,-2.546875 1.60937,-0.15625 c 4.85938,-0.480469 8.67188,-2.898438 10.07032,-6.382813 0.47265,-1.179687 0.55468,-1.796875 0.54687,-4.257812 -0.0117,-3.523438 -0.48437,-4.96875 -2.28515,-6.9375 -2.07032,-2.265625 -4.41407,-3.4375 -8.14063,-4.070313 L 333,51.449219 332.92969,49.726562 332.85937,48 l 4.30079,0 c 3.74218,0 4.59375,-0.07422 6.5625,-0.574219 5.58984,-1.417969 8.99218,-4.199219 9.95703,-8.148437 0.34375,-1.40625 0.36328,-1.945313 0.125,-3.71875 -0.64844,-4.886719 -3.58594,-8.160156 -8.5625,-9.542969 -1.07422,-0.300781 -2.82032,-0.429687 -6.8711,-0.515625 l -5.42578,-0.109375 -0.41015,-1.472656 c -1.08204,-3.894531 -4.05469,-7.585938 -7.36719,-9.148438 -2.78906,-1.316406 -4.44922,-1.664062 -8.00781,-1.664062 z m -14.76172,96.546871 0,10.78516 c 0,10.71094 -0.004,10.80078 -0.59766,13.14844 -1.14844,4.52343 -3.72266,8.76172 -6.76562,11.14062 -1.61719,1.26172 -4.78907,2.73047 -6.91407,3.19141 -3.5625,0.77734 -7.35547,0.67578 -11.24609,-0.3086 -6.29688,-1.58984 -10.78516,-6.02734 -12.78906,-12.65234 -0.88672,-2.92969 -0.94141,-7.35937 -0.125,-10.39453 1.53906,-5.75 5.22265,-10.47656 10,-12.82812 3.89062,-1.91797 3.57422,-1.87891 16.73828,-1.98438 l 11.69531,-0.0977 z m 0,0" style="fill:#f07f8a;fill-opacity:1;fill-rule:nonzero;stroke:none"/>
      <g id="g3719">
        <path style="fill:#f07f8a;fill-opacity:1;fill-rule:nonzero;stroke:none" d="m 462.15234,144.60156 c -5.67187,-1.4414 -9.85547,-6.9414 -10.17968,-13.3789 -0.11329,-2.26954 -0.0937,-2.39063 0.67187,-3.96094 1.08203,-2.21875 3.74219,-4.80078 8.39453,-8.14453 3.86719,-2.77735 5.42578,-4.19141 6.11328,-5.55469 0.60938,-1.21094 1.20703,-4.69531 2.15235,-12.51953 1.01562,-8.421876 1.10937,-12.125001 0.375,-15.000001 -0.57032,-2.226563 -1.30469,-3.566407 -2.61328,-4.746094 -0.99219,-0.894531 -2.8711,-1.613281 -4.23438,-1.613281 l -0.76172,0 -0.41406,2.582031 c -0.55469,3.449219 -2.37109,12.121094 -3.38281,16.15625 -3.55469,14.156255 -11.47657,32.484375 -16.9961,39.316405 -3.20703,3.97266 -7.5039,6.01563 -12.63672,6.01953 -7.33984,0 -12.46484,-4.47265 -14.07421,-12.28125 -0.41407,-2.01562 -0.41407,-2.07422 0.10546,-4.17968 0.67969,-2.76172 2.86329,-7.09766 6.88282,-13.65235 1.69922,-2.77344 3.55468,-6.01953 4.12109,-7.21875 2.05078,-4.32031 3.94531,-10.26953 6.57031,-20.621092 l 1.64453,-6.480469 -6.04687,-0.140625 c -6.76563,-0.152344 -7.81641,-0.355469 -10.60547,-2.027344 -2.58594,-1.554688 -3.96875,-3.324219 -5.08203,-6.5 -0.61719,-1.753906 -0.66406,-2.167969 -0.66406,-5.613281 0,-3.4375 0.0508,-3.859375 0.66015,-5.597657 1.28125,-3.664062 3.32813,-6.050781 6.52735,-7.617187 3.16797,-1.550781 3.9414,-1.664063 11.33203,-1.664063 l 6.54687,0 0.004,-2.101562 c 0,-1.152344 0.10937,-3.867188 0.24219,-6.023438 0.19531,-3.214843 0.33984,-4.183593 0.8125,-5.347656 0.93359,-2.316406 2.07812,-4.046875 3.86328,-5.839844 2.70312,-2.722656 5.8789,-4.152343 9.71875,-4.375 4.08984,-0.242187 7.36328,0.71875 10.24219,3.003907 2.35156,1.867187 4.45703,5.5 4.78125,8.25 0.13281,1.144531 -0.15625,7.394531 -0.53125,11.496093 l -0.14844,1.582032 2.37109,0.167968 c 16.83594,1.175782 27.28125,12.8125 30.61719,34.109376 0.71875,4.582031 0.78125,15.078122 0.11328,19.316402 -1.55859,9.94141 -5.33984,20.39844 -9.80859,27.1211 -5.11719,7.71093 -14.01563,12.91797 -22.75782,13.32031 -1.78125,0.082 -2.93359,0.008 -3.92578,-0.24219 z m 0,0" id="path3412"/>
        <path style="fill:#f07f8a;fill-opacity:1;fill-rule:nonzero;stroke:none" d="m 512.51953,117.20703 c -2.58984,-0.50781 -3.30469,-0.71875 -4.50781,-1.32422 -1.61328,-0.8125 -3.06641,-2.18359 -3.76172,-3.54687 -0.46484,-0.90625 -0.48828,-1.37891 -0.48828,-8.75391 0,-4.289061 -0.1211,-9.179686 -0.26172,-10.871092 -0.25781,-2.996094 -1.13672,-9.238282 -1.66016,-11.777344 -0.3164,-1.511719 -0.0312,-3.382813 0.74219,-4.894532 1.78516,-3.5 7.80469,-6.527343 12.17578,-6.117187 3.17969,0.296875 6.33203,1.828125 8.57813,4.167969 2.24218,2.339844 4.03906,7.421875 4.67187,13.21875 0.55469,5.0625 0.008,17.503906 -0.99609,22.648436 -0.73828,3.77735 -3.66406,6.19141 -8.53125,7.03906 -1.90625,0.33594 -4.81641,0.4375 -5.96094,0.21094 z m 0,0" id="path3414"/>
      </g>
      <g id="g3723">
        <path style="fill:#f07f8a;fill-opacity:1;fill-rule:nonzero;stroke:none" d="m 649.60156,181.92187 c -3.75,-0.46093 -6.96875,-1.99218 -9.16015,-4.35546 -1.50391,-1.6211 -2.33985,-3.0586 -3.20313,-5.48438 l -0.64062,-1.80078 -0.1211,-10.91797 -0.11719,-10.92187 -12.12109,-0.0391 c -13.57422,-0.043 -14.06641,-0.0937 -17.125,-1.69922 -4.28125,-2.25 -6.38281,-6.25781 -6.39062,-12.20312 -0.0117,-5.82422 2.4375,-10.34375 6.83593,-12.62109 3.42578,-1.77344 2.96485,-1.72266 16.5586,-1.86719 l 12.23828,-0.12891 0.13281,-8.28125 -32.35547,0 -0.38672,0.58985 c -0.21484,0.32422 -1.38672,1.63672 -2.60937,2.91797 -3.91406,4.10156 -10.38672,9.30468 -17.05078,13.71093 l -3.09766,2.04688 11.26172,11.30859 c 6.19531,6.21875 11.69922,11.84766 12.23437,12.50781 6.24219,7.69532 6.76563,14.7461 1.49219,20.01953 -5.72265,5.72266 -13.03906,7.19532 -19.53906,3.9375 -0.92578,-0.46484 -2.11328,-1.16015 -2.64063,-1.54687 -1.78906,-1.3125 -51.49218,-51.13672 -52.51171,-52.63672 -4.21094,-6.20312 -3.51172,-12.68359 1.9414,-17.94922 2.70703,-2.61328 6.35938,-4.72656 9.66406,-5.59375 4.42969,-1.156248 9.17188,0.65625 14.21485,5.44532 0.95312,0.90234 1.78906,1.64062 1.86328,1.64453 0.0742,0 1.57812,-0.86719 3.33984,-1.92578 8.65625,-5.19922 17.99219,-13.023442 22.125,-18.554692 3.42578,-4.589844 6.42578,-10.441407 8.44141,-16.480469 0.59766,-1.78125 1.15234,-3.589844 1.24219,-4.015625 l 0.15625,-0.777344 -71.4375,-0.125 -2.10157,-0.753906 c -2.85156,-1.019532 -4.55859,-2.066406 -6.44921,-3.957032 -2.86719,-2.863281 -4.13282,-6.28125 -4.12891,-11.132812 0.008,-4.898438 1.14453,-7.890625 4.15625,-10.941406 2.08594,-2.113282 4.60937,-3.503906 7.8125,-4.304688 1.90234,-0.472656 2.55078,-0.480468 46.91797,-0.410156 l 44.99219,0.07031 1.84375,0.535157 c 5.3789,1.558593 8.70312,4.199219 10.79296,8.574219 1.66016,3.46875 1.96485,5.089843 1.98047,10.558593 0.008,3.984375 -0.0781,5.300781 -0.52734,7.753907 -1.07422,5.871093 -3.29688,13.417968 -5.79688,19.691406 -0.53515,1.34375 -0.97265,2.550781 -0.97265,2.683594 0,0.152343 2.64844,0.214843 7.5,0.175781 l 7.5,-0.06641 0.1289,-4.796874 c 0.10938,-4.140626 0.19922,-4.976563 0.63672,-6.0625 1.69922,-4.214844 4.66016,-7.027344 8.81641,-8.371094 2.57031,-0.835938 7.39062,-1.054688 10.45703,-0.480469 5.32422,0.996094 9.375,4.460937 10.92578,9.34375 0.53516,1.679687 0.59766,2.285156 0.59766,5.820313 l 0,3.949218 15.78906,0 c 17.12891,0 17.14844,0 19.82813,1.347656 3.77734,1.894532 5.96484,5.625 6.30078,10.734376 0.42578,6.507817 -1.91797,11.667977 -6.39063,14.050787 -2.76172,1.47266 -2.65625,1.46484 -19.85937,1.46484 l -15.67188,0 0,8.40235 12.33594,0 c 11.73047,0 12.41016,0.0234 13.91797,0.48828 3.5664,1.10156 6.47656,4.10937 7.73437,7.99218 0.85547,2.65235 1.06641,7.27735 0.46485,10.25782 -0.83203,4.125 -3.01172,7.12889 -6.30078,8.6875 l -1.63282,0.77343 -13.19922,0.1211 -13.19921,0.11719 -0.125,10.80078 c -0.125,10.48437 -0.14454,10.84764 -0.6836,12.48047 -0.875,2.63281 -1.9414,4.42967 -3.63281,6.12109 -1.80859,1.80859 -3.80859,2.94922 -6.28516,3.57812 -2.15625,0.54688 -5.52734,0.76563 -7.71093,0.4961 z m 0,0" id="path3404"/>
        <path style="fill:#f07f8a;fill-opacity:1;fill-rule:nonzero;stroke:none" d="m 679.76172,78.980469 c -6.66797,-1.8125 -10.96094,-7.8125 -10.57031,-14.78125 l 0.12109,-2.160157 -2.91797,0 c -3.60156,0 -5.53906,-0.554687 -8.26172,-2.375 -4.23047,-2.824218 -6.48828,-7.40625 -6.23047,-12.625 0.1836,-3.746093 1.5625,-6.894531 4.14063,-9.472656 6.78515,-6.785156 18.53515,-5.023437 22.85937,3.421875 1.33985,2.625 1.61328,3.820313 1.61328,7.054688 l 0,2.796875 2.0625,-0.132813 c 6.99219,-0.453125 13.375,4.226563 14.96485,10.972657 0.7539,3.199218 0.24609,7.40625 -1.21875,10.097656 -1.67578,3.082031 -4.85156,5.824218 -8.02344,6.925781 -2.23828,0.78125 -6.21094,0.910156 -8.53906,0.277344 z m 0,0" id="path3416"/>
      </g>
      <g id="g3715">
        <path style="fill:#f07f8a;fill-opacity:1;fill-rule:nonzero;stroke:none" d="m 383.87891,180.21484 c -7.58594,-1.08203 -14.53907,-3.86328 -21.61329,-8.64453 -8.77343,-5.9375 -13.89453,-13.60156 -15.96484,-23.89844 -0.73047,-3.64453 -0.90625,-11.23046 -0.35547,-15.43359 0.71485,-5.47656 2.20313,-11.13672 3.91797,-14.90234 1.36719,-3.01172 5.93359,-8.4375 14.05078,-16.69531 l 4.04688,-4.121099 -8.48047,-9.042969 c -9.21875,-9.828124 -10.19141,-10.929687 -11.10938,-12.621093 -2.20703,-4.050781 -0.58593,-8.765625 4.73828,-13.808594 2.73047,-2.582031 4.98829,-3.726563 7.66797,-3.882813 2.38672,-0.136718 4.4375,0.386719 6.25782,1.59375 0.73046,0.484376 5.35937,4.773438 10.28515,9.535157 4.92578,4.757812 9.09766,8.734375 9.26172,8.835937 0.19141,0.113282 0.76953,-0.214844 1.55859,-0.882812 1.71094,-1.453125 4.32032,-3.105469 6.0586,-3.835938 1.67578,-0.707031 4.6914,-1.371094 6.17187,-1.367187 5.47657,0.02344 11.85938,4.644531 13.88282,10.046875 1.05468,2.824218 0.87109,5.632812 -0.57032,8.667968 -0.67187,1.421876 -2.10547,2.9375 -16.0039,16.921878 -8.39844,8.44922 -16.37891,16.60156 -17.73828,18.12109 -4.12891,4.61328 -5.52344,7.48438 -5.72266,11.76172 -0.21094,4.61328 1.09766,7.91016 4.49609,11.30859 1.74219,1.7461 2.42578,2.24219 4.33594,3.16016 3.70313,1.77734 7.00781,2.25 10.28516,1.48047 2.28125,-0.53906 4.07031,-1.60938 6.55859,-3.92188 1.22266,-1.14062 2.85156,-2.48437 3.62109,-2.99218 4.87891,-3.23047 10.38282,-3.34375 14.99219,-0.31641 2.73047,1.79297 5.86719,6.4375 6.54297,9.6875 0.625,3.00781 -0.0703,6.28125 -1.95312,9.19531 -3.89063,6.02344 -14.37891,12.66016 -23.85938,15.09766 -4.37891,1.1289 -11.17578,1.55078 -15.35937,0.95312 z m 0,0" id="path3406"/>
        <path style="fill:#f07f8a;fill-opacity:1;fill-rule:nonzero;stroke:none" d="m 387.71875,69.203125 c -5.73438,-1.191406 -9.89063,-4.945313 -11.28516,-10.175781 -0.45312,-1.699219 -0.44922,-5.277344 0.004,-7.019532 0.74219,-2.847656 2.59766,-5.636718 4.92969,-7.402343 2.76562,-2.097657 5.6914,-2.976563 9.33593,-2.800781 l 2.15625,0.101562 -0.13281,-1.8125 c -0.48047,-6.554688 4.00391,-12.695312 10.46094,-14.316406 2.03906,-0.511719 5.83203,-0.367188 7.72266,0.292968 3.07031,1.078126 5.82812,3.332032 7.47656,6.117188 1.41797,2.394531 1.73437,3.710938 1.72265,7.171875 -0.008,2.667969 -0.082,3.179687 -0.64843,4.613281 -2.3125,5.867188 -7.91407,9.433594 -14.05469,8.957032 l -1.99609,-0.15625 0.16015,1.660156 c 0.11719,1.179687 0.0469,2.253906 -0.23828,3.675781 -1.125,5.601563 -5.17969,9.738281 -10.69141,10.910156 -1.47656,0.316407 -3.86718,0.402344 -4.92187,0.183594 z m 0,0" id="path3418"/>
      </g>
    </g>
    <g id="g3795">
      <path id="path3424" d="m 215.44922,80.992188 c -2.0625,-0.757813 -3.05078,-2.050782 -3.05078,-3.988282 0.004,-2.75 1.51953,-4.6875 4.5664,-5.839844 3.48438,-1.316406 9.71875,-4.695312 9.54297,-5.175781 -0.0391,-0.105469 -1.58203,-1.238281 -3.42969,-2.511719 -6.35937,-4.390624 -9.23828,-7.097656 -9.23828,-8.695312 0,-0.902344 1.01953,-3.722656 2.61719,-7.234375 0.80469,-1.769531 1.46094,-3.300781 1.46094,-3.402344 0,-0.105469 -1.55469,-0.222656 -3.45703,-0.265625 -3.44922,-0.07813 -3.46094,-0.08203 -4.38282,-0.8125 -1.41796,-1.132812 -2,-2.488281 -2,-4.679687 0,-2.246094 0.61719,-3.597657 2.14063,-4.667969 L 211.23828,33 l 6.03906,-0.121094 6.04297,-0.121094 0.51563,-1.796874 c 0.28515,-0.992188 0.92968,-3.90625 1.43359,-6.480469 l 0.91797,-4.679688 0.99609,-1 c 0.79297,-0.792969 1.27735,-1.054687 2.38672,-1.285156 2.57422,-0.53125 5.20313,0.4375 6.54688,2.414063 0.51953,0.769531 0.55078,0.980468 0.40234,2.871093 -0.20312,2.519531 -0.70312,5.53125 -1.32812,7.972657 -0.25782,1.019531 -0.47266,1.910156 -0.47266,1.980468 0,0.07031 4.49609,0.125 9.99219,0.125 7.17578,0 10.26953,0.08203 10.98047,0.292969 1.33593,0.398437 3.17968,2.246094 3.39843,3.402344 0.0899,0.476562 0.1211,1.617187 0.0664,2.535156 -0.0742,1.375 -0.21875,1.847656 -0.80469,2.679687 -0.39062,0.554688 -1.14453,1.234376 -1.67187,1.507813 -0.92969,0.488281 -1.3711,0.507813 -13.54297,0.621094 l -12.57813,0.121093 -3.47656,8.289063 0.75781,0.5625 c 0.41797,0.308594 2.23438,1.59375 4.03516,2.851563 l 3.27734,2.292968 0.58594,-0.636718 c 1.05859,-1.148438 2.01172,-2.746094 3.64453,-6.097657 0.87891,-1.8125 1.96094,-3.675781 2.39844,-4.136719 0.67969,-0.722656 0.94922,-0.84375 1.87891,-0.84375 2.47656,0 5.07812,1.507813 5.96484,3.464844 1.23828,2.730469 -0.21875,7.332032 -3.87891,12.253906 -0.78515,1.054688 -1.40234,1.980469 -1.36718,2.054688 0.0312,0.07813 0.97656,0.933594 2.09765,1.910156 6.90235,5.988282 7.65625,6.890625 7.86328,9.480469 0.11719,1.472656 0.0859,1.59375 -0.6875,2.605469 -0.44922,0.585937 -1.34375,1.425781 -1.98828,1.867187 -1.04297,0.714844 -1.34765,0.800781 -2.75781,0.792969 -1.01172,-0.0039 -1.85938,-0.152344 -2.33594,-0.40625 -0.41015,-0.222656 -2.92969,-2.128906 -5.59375,-4.238281 l -4.84765,-3.835938 -1.96485,1.515625 c -6.14062,4.726563 -12.22265,7.59375 -16.04297,7.558594 -0.96875,-0.01172 -2.17187,-0.167969 -2.67187,-0.351562 z m 0,0" style="fill:#d4a67d;fill-opacity:1;fill-rule:nonzero;stroke:none"/>
      <g id="g3701">
        <path style="fill:#d4a67d;fill-opacity:1;fill-rule:nonzero;stroke:none" d="m 51.300781,81.03125 c -2.285156,-0.847656 -2.921875,-1.828125 -2.910156,-4.472656 0.0078,-1.796875 0.3125,-3.195313 1.277344,-5.839844 0.664062,-1.820312 1.160156,-5.527344 1.410156,-10.503906 0.238281,-4.726563 0.515625,-5.53125 2.207031,-6.394532 1.046875,-0.535156 1.15625,-0.539062 11.085938,-0.539062 l 10.027344,0 0,-3.359375 -10.378907,-0.0078 c -11.667969,-0.0039 -11.59375,0.0039 -13.074219,-1.792968 -1.730468,-2.09375 -1.675781,-6.238282 0.105469,-8.09375 1.363281,-1.425782 1.140625,-1.410156 17.785157,-1.335938 l 15.199218,0.07031 0.808594,0.878906 c 0.445312,0.484375 0.925781,1.328125 1.074219,1.875 0.179687,0.671875 0.246093,3.816406 0.195312,9.679687 l -0.07422,8.683594 -0.71875,1.429688 c -0.40625,0.808594 -1.121093,1.75 -1.644531,2.160156 -0.882812,0.703125 -1.023437,0.734375 -3.65625,0.8125 l -2.742187,0.07813 0,3.996094 3.542968,0.08203 c 3.144532,0.07422 3.667969,0.144531 4.699219,0.65625 2.242188,1.101562 3.359375,3.6875 2.789063,6.445312 -0.230469,1.097657 -0.492188,1.585938 -1.28125,2.375 -0.578125,0.582032 -1.386719,1.101563 -1.949219,1.257813 C 83.582031,79.585938 71.414062,79.53125 69.988281,79.101562 68.40625,78.625 67.351562,77.742188 66.625,76.28125 66.007812,75.042969 66,74.957031 66,69.671875 l 0,-5.351563 -5.519531,0 0,2.847657 c 0,3.101562 -0.449219,6.25 -1.230469,8.625 -1.265625,3.839843 -5.03125,6.324219 -7.949219,5.238281 z m 0,0" id="path3420"/>
        <path style="fill:#d4a67d;fill-opacity:1;fill-rule:nonzero;stroke:none" d="m 35.234375,79.914062 c -2.574219,-0.433593 -3.554687,-1.644531 -3.554687,-4.390624 0,-1.972657 -0.109376,-1.695313 2.984374,-7.425782 1.859376,-3.433594 1.847657,-3.320312 2.023438,-22.976562 l 0.152344,-17.160156 0.550781,-0.890626 c 0.304687,-0.488281 0.953125,-1.132812 1.441406,-1.4375 0.878907,-0.546874 0.972657,-0.554687 9.933594,-0.625 10.089844,-0.07812 9.101563,0.113282 9.433594,-1.835937 C 58.707031,20.171875 61.027344,18 63.71875,18 c 2.867188,0 4.792969,1.898438 5.429688,5.355469 l 0.289062,1.582031 8.199219,0.07031 8.203125,0.07031 0.847656,0.648437 c 1.242188,0.949219 1.71875,2.128907 1.71875,4.28125 C 88.410156,31.546875 88.304688,32 87.714844,33.085938 87.25,33.941406 86.703125,34.542969 86.03125,34.9375 l -0.992188,0.582031 -36.980468,0 -0.128906,13.019531 c -0.07031,7.277344 -0.238282,13.714844 -0.378907,14.597657 -0.347656,2.148437 -1.796875,7.109375 -2.792969,9.550781 -1.683593,4.132812 -3.941406,6.691406 -6.363281,7.210938 -1.34375,0.289062 -1.53125,0.289062 -3.160156,0.01562 z m 0,0" id="path3426"/>
      </g>
      <g id="g3705">
        <path style="fill:#d4a67d;fill-opacity:1;fill-rule:nonzero;stroke:none" d="m 131.44141,17.285156 c -1.77344,0.05078 -3.54297,0.542969 -4.5586,1.5 -1.07422,1.015625 -1.35937,2.113282 -1.35937,5.28125 l -0.004,2.585938 -7.98437,-0.132813 -0.33594,-1.320312 c -0.72656,-2.84375 -2.83984,-4.472657 -5.55469,-4.277344 -2.17187,0.160156 -3.42187,1.015625 -4.40625,3.015625 l -0.79687,1.609375 -0.13282,19.207031 c -0.12109,17.464844 -0.17187,19.335938 -0.55859,20.632813 -0.56641,1.890625 -1.35156,3.410156 -2.44531,4.707031 -1.47266,1.753906 -2.01563,3.183594 -2.01953,5.296875 -0.004,1.820313 0.004,1.839844 0.96484,2.796875 0.53125,0.53125 1.42188,1.195312 1.98047,1.46875 2.07422,1.03125 4.25781,0.382812 6.86328,-2.027344 2.73438,-2.53125 4.08984,-4.972656 5.29688,-9.527344 0.85546,-3.257812 1.20703,-5.933593 1.20703,-9.246093 l 0,-2.476563 1.74218,0.07031 1.73829,0.07031 -0.0312,2.878907 c -0.0469,4.429687 -1.30469,11.148437 -2.625,14.019531 -1.28907,2.808593 -0.94141,5.34375 0.86718,6.265625 0.89063,0.457031 1.46094,0.472656 13.86328,0.472656 9.03125,0 13.17969,-0.07813 13.75,-0.269531 1.34766,-0.453125 2.30469,-1.320313 2.75782,-2.511719 0.3789,-0.992188 0.39062,-1.296875 0.11328,-2.941406 -0.62887,-3.757808 -3.5234,-10.808589 -5.11324,-12.45312 -1.03907,-1.074219 -2.52344,-1.601563 -4.01172,-1.425781 -1.46875,0.171874 -2.27344,0.582031 -3.42969,1.742187 -1.12109,1.121094 -1.4375,2.222656 -1.47266,5.082031 l -0.0234,2.222656 -2.34375,0 c -1.28516,0 -2.33594,-0.08203 -2.33594,-0.179687 0,-0.101563 0.15234,-1.054687 0.33984,-2.121094 0.30078,-1.710937 0.76172,-6.566406 0.92188,-9.699219 l 0.0586,-1.082031 8.08594,-0.121093 8.08594,-0.117188 0.86328,-0.835938 c 2.26562,-2.199218 2.01562,-7.648437 -0.4336,-9.464843 -0.6289,-0.464844 -1.07812,-0.511719 -6.24218,-0.621094 l -5.5625,-0.117187 0,-7.441407 3.96093,-0.121093 c 4.27344,-0.128907 4.53125,-0.199219 5.71485,-1.542969 2.03515,-2.320313 1.57812,-7.144531 -0.83203,-8.777344 -0.84375,-0.574219 -1.07813,-0.601563 -4.92579,-0.675781 l -4.03906,-0.07813 0,-3.351563 c 0,-2.535156 -0.0898,-3.53125 -0.36328,-4.0625 -0.67969,-1.316406 -2.96094,-1.972656 -5.23828,-1.90625 z m -13.83985,20.394532 7.91797,0 0,7.679687 -7.91797,0 z m 0,0" id="path3428"/>
        <path style="fill:#d4a67d;fill-opacity:1;fill-rule:nonzero;stroke:none" d="m 94.433594,55.125 c -2.574219,-1.222656 -3.824219,-3.230469 -3.832032,-6.164062 -0.0039,-1.554688 0.09375,-1.976563 0.707032,-3.085938 0.390625,-0.707031 1.0625,-1.574219 1.492187,-1.929688 L 93.578125,43.304688 92.804688,42.6875 c -0.425782,-0.339844 -1.09375,-1.199219 -1.488282,-1.910156 -0.621094,-1.121094 -0.71875,-1.542969 -0.714844,-3.097656 0.0078,-2.140626 0.558594,-3.554688 1.898438,-4.855469 1.460938,-1.417969 2.363281,-1.746094 4.816406,-1.742188 2.4375,0.0039 3.160154,0.277344 4.640624,1.757813 1.21485,1.214844 1.79297,2.511718 1.91406,4.277344 0.13282,1.984374 -0.42578,3.59375 -1.76171,5.078124 l -1.05469,1.171876 0.73437,0.695312 c 0.40235,0.382812 1.01953,1.183594 1.3711,1.777344 0.55468,0.941406 0.63672,1.34375 0.63672,3.121094 0,2.335937 -0.39844,3.398437 -1.80079,4.800781 -1.27734,1.277343 -2.484371,1.769531 -4.55859,1.859375 -1.507812,0.06641 -1.996094,-0.01563 -3.003906,-0.496094 z m 0,0" id="path3432"/>
      </g>
      <g id="g3709">
        <path style="fill:#d4a67d;fill-opacity:1;fill-rule:nonzero;stroke:none" d="m 167.28125,81.015625 c -3.11328,-0.398437 -4.25781,-0.703125 -5.30469,-1.402344 -1.18359,-0.789062 -1.65625,-1.898437 -1.65625,-3.878906 0,-2.285156 0.61328,-3.527344 2.19141,-4.429687 1.13281,-0.644532 1.35937,-0.679688 5.43359,-0.839844 8.82422,-0.339844 11.5586,-0.726563 14.19922,-2.015625 2.19141,-1.070313 5.49609,-4.132813 7.8125,-7.246094 1.83984,-2.46875 2.57813,-2.886719 5.10938,-2.878906 3.09375,0.0039 4.61328,1.625 4.61328,4.914062 0,3.125 -1.27735,5.695313 -4.25,8.550781 -2.42969,2.332032 -7.76563,5.757813 -10.90235,7 -5.16406,2.042969 -11.90234,2.914063 -17.24609,2.226563 z m 0,0" id="path3422"/>
        <path style="fill:#d4a67d;fill-opacity:1;fill-rule:nonzero;stroke:none" d="m 175.80078,61.886719 c -1.12891,-0.417969 -2.17578,-1.304688 -2.60156,-2.195313 -0.34375,-0.730468 -0.38672,-2.878906 -0.40625,-20.097656 -0.0195,-18.625 -0.004,-19.304688 0.4375,-19.898438 1.07422,-1.441406 3.55859,-2.105468 6.28125,-1.683593 1.85156,0.285156 3.28906,1.167969 3.91015,2.394531 0.39454,0.777344 0.41797,2.097656 0.35938,19.59375 l -0.0625,18.757812 -0.73047,1.042969 c -1.06641,1.519531 -2.42969,2.1875 -4.65234,2.277344 -1,0.03906 -2.14063,-0.04687 -2.53516,-0.191406 z m 0,0" id="path3430"/>
        <path style="fill:#d4a67d;fill-opacity:1;fill-rule:nonzero;stroke:none" d="m 156.87891,54.128906 c -0.50782,-0.179687 -1.19141,-0.582031 -1.52344,-0.890625 -1.65235,-1.542969 -1.70313,-3.273437 -0.20313,-6.789062 1.6211,-3.796875 3.67969,-10.988281 4.46485,-15.609375 0.16015,-0.925782 0.48437,-2.070313 0.72656,-2.550782 1.49219,-2.957031 5.46094,-3.488281 7.81641,-1.042968 1.85156,1.921875 1.90625,4.242187 0.29296,12.113281 -1.82421,8.921875 -3.34765,12.761719 -5.75781,14.539063 -0.6914,0.511718 -1.03515,0.578124 -2.83984,0.570312 -1.12891,-0.0039 -2.46875,-0.160156 -2.97656,-0.339844 z m 0,0" id="path3434"/>
        <path style="fill:#d4a67d;fill-opacity:1;fill-rule:nonzero;stroke:none" d="m 198.29687,52.71875 c -1.53515,-0.554688 -2.33984,-1.453125 -3.29296,-3.679688 -1.32422,-3.089843 -5.21094,-10.808593 -7.05469,-14 -1.52344,-2.644531 -1.58985,-2.824218 -1.58985,-4.355468 0,-1.429688 0.0781,-1.699219 0.74219,-2.519532 1.57813,-1.960937 3.46485,-2.71875 5.57813,-2.246093 2.52734,0.566406 3.99218,2.601562 8.97265,12.480469 2.75782,5.46875 3.78907,8.011718 3.78516,9.328124 -0.004,1.261719 -0.52734,2.480469 -1.47656,3.429688 -1.69532,1.699219 -3.73828,2.261719 -5.66407,1.5625 z m 0,0" id="path3436"/>
      </g>
    </g>
  </g>
</svg>